<svg id="Layer_1" data-name="Layer 1" xmlns="http://www.w3.org/2000/svg" viewBox="0 0 100 100"><g id="Page-1"><g id="ic-technology-dynamodb"><path id="Combined-Shape" d="M82,75.46l.8.35.18-.13V88.85l-.33.46L65.84,99.06H64.62V80.8Zm-63.47.85,16.58,4.87H37V99.06H35.75L18.57,90.53Zm43,4.86V99.06H40.05V81.17ZM93.41,68.35v9l-7.13,12V74.34l.06,0,2.93-3ZM15.5,10.05V24.62l20.09-5.89H62.93l19.24,5.89.28-.09,9.47,6.69.31.59-3,.33v2.38l-7.07-3.71L62.93,26.4H35.59L15.5,30.81V45.34l20.09-.76H62.93l19.24.76.13-.07,9.28.86.65.14-3,0v4.25l3,0-.64.31-9,.77-.43-.2-19.24.77H35.59v0L15.5,51.49V66l20.09,4.4H62.93l19.29-4.38.23-.48,6.4-3.4.39.15v2.42l3,.32-.41.66-9.34,6.59-.26-.11L62.93,78.11H35.59L15.5,72.21V86.78L6.29,75.13V65l.13.09,2.86-.31V62.27l-3-1.59V50.55l.48.05,2.51,0V46.31l-2.91,0H6.29V36.15l3-1.58V32.14l-2.91-.32-.08.06V21.7Zm3.07,44.62,14,.52v.13H37v12H35.91l-17.34-3.8Zm43,.65v12H40.05v-12Zm20-.75.5.23,1-.08v7.07l-2.89,1.54,0,.05L64.61,66.9V55.25Zm11.85-1.13V62.1L92.31,62V60.23l-3.66-1.44-2.37,1.26V54.44l6.14-.52Zm-7.13-17,6,3.16V36.46l1.1.84v6.09l-1.18-.26-.37-.06-5.58-.51ZM64.61,29.93l16.47,3.78,1.94,1v7.53l-1.3-.12-.21.1-16.9-.67ZM37,29.47v12H35.59l-17,.64V33.28l17.34-3.81Zm24.56,0v12H40.05v-12ZM86.28,10.58l7.13,12v6l-7.13-5ZM65.84.85l16.85,9.73.33.47V21.17l0,0-.83.26L64.61,16V.85ZM37,.85V15.66H35.15L18.57,20.52V9.36L35.75.85Zm24.56,0V15.66H40.05V.85Z"/></g></g></svg>